<svg id="Layer_1" data-name="Layer 1" xmlns="http://www.w3.org/2000/svg" viewBox="0 0 115 115"><defs><style>.cls-1{fill:#fcb7b4;}.cls-2{fill:#c44139;}.cls-3{fill:none;stroke:#c44139;stroke-miterlimit:10;stroke-width:2px;}.cls-4{fill:#ff484a;}</style></defs><g id="Icon:_Give_and_get_feedback" data-name="Icon: Give and get feedback"><g id="Group_73747" data-name="Group 73747"><path id="Path_61355" data-name="Path 61355" class="cls-1" d="M25.48,7H66.34L82.41,23.07V79.24a7.2,7.2,0,0,1-7.2,7.2H25.48a7.2,7.2,0,0,1-7.2-7.2h0v-65A7.2,7.2,0,0,1,25.48,7Z"/><path id="Path_61321" data-name="Path 61321" class="cls-2" d="M82.41,23.07H66.34V7Z"/></g><g id="Group_73746" data-name="Group 73746"><line id="Line_218" data-name="Line 218" class="cls-3" x1="31.39" y1="34.53" x2="76.48" y2="34.53"/><line id="Line_219" data-name="Line 219" class="cls-3" x1="73.24" y1="45.09" x2="90.14" y2="45.09"/><line id="Line_220" data-name="Line 220" class="cls-3" x1="31.39" y1="45.09" x2="66.34" y2="45.09"/><line id="Line_221" data-name="Line 221" class="cls-3" x1="31.39" y1="55.66" x2="90.14" y2="55.66"/></g><path id="Path_61323" data-name="Path 61323" class="cls-4" d="M55.72,66.48a3.64,3.64,0,0,0-3.63,3.63h0v24.8a3.64,3.64,0,0,0,3.63,3.63h5.12v12.81a.72.72,0,0,0,1.24.51L75.41,98.54H95.09a3.64,3.64,0,0,0,3.63-3.63h0V70.11a3.64,3.64,0,0,0-3.63-3.63H55.72Z"/></g></svg>