<svg xmlns="http://www.w3.org/2000/svg" width="20" height="20" viewBox="0 0 20 20">
  <path id="Path_61406" data-name="Path 61406" d="M20,9.52a10.442,10.442,0,0,0-.96-3.8h0A9.924,9.924,0,0,0,10.48,0H9.52A9.924,9.924,0,0,0,.96,5.72h0A10.442,10.442,0,0,0,0,9.52H0v.96H0a10.442,10.442,0,0,0,.96,3.8h0A9.973,9.973,0,0,0,9.52,20h.96a9.924,9.924,0,0,0,8.56-5.72h0a10.442,10.442,0,0,0,.96-3.8h0Zm-.96,0h-3.8a15.224,15.224,0,0,0-.48-3.8H18A8.449,8.449,0,0,1,19.04,9.52Zm-5.6-4.76H10.48V1.04C11.72,1.32,12.76,2.84,13.44,4.76ZM9.52,1.04V4.76H6.56C7.24,2.84,8.28,1.32,9.52,1.04Zm0,4.68v3.8H5.72a17.441,17.441,0,0,1,.56-3.8H9.52Zm0,4.76v3.8H6.28a17.441,17.441,0,0,1-.56-3.8Zm0,4.76v3.72c-1.24-.28-2.28-1.8-2.96-3.72Zm.96,3.72V15.24h2.96C12.76,17.16,11.72,18.68,10.48,18.96Zm0-4.68v-3.8h3.8a17.44,17.44,0,0,1-.56,3.8Zm0-4.76V5.72h3.24a17.441,17.441,0,0,1,.56,3.8Zm6.84-4.76H14.48a9.465,9.465,0,0,0-1.8-3.44A8.875,8.875,0,0,1,17.32,4.76ZM7.44,1.32A9.415,9.415,0,0,0,5.52,4.76H2.68A9.167,9.167,0,0,1,7.44,1.32ZM2,5.72H5.24a20.16,20.16,0,0,0-.48,3.8H.96A8.449,8.449,0,0,1,2,5.72ZM.96,10.48h3.8a15.224,15.224,0,0,0,.48,3.8H2A8.449,8.449,0,0,1,.96,10.48Zm1.6,4.76H5.52a9.465,9.465,0,0,0,1.8,3.44,9.131,9.131,0,0,1-4.68-3.44Zm10,3.44a9.415,9.415,0,0,0,1.92-3.44h2.96A9.246,9.246,0,0,1,12.56,18.68ZM18,14.28H14.76a20.16,20.16,0,0,0,.48-3.8h3.8A8.449,8.449,0,0,1,18,14.28Z" fill="#4b4b4b"/>
</svg>
