<svg id="Layer_1" data-name="Layer 1" xmlns="http://www.w3.org/2000/svg" viewBox="0 0 897 549"><defs><style>.cls-1{fill:#f5f5f5;}.cls-2{fill:#c7c7c7;}.cls-3{fill:#c44139;fill-rule:evenodd;}.cls-4{fill:#fc9792;}.cls-5{fill:#d36e68;}.cls-6{fill:#fcb7b4;}.cls-7{fill:#ff484a;}.cls-11,.cls-8{fill:none;stroke-miterlimit:10;stroke-width:3px;}.cls-8{stroke:#fff;}.cls-9{fill:#ffb6b5;}.cls-10{fill:#de5252;}.cls-11{stroke:#d13b3b;}</style></defs><path class="cls-1" d="M485,144.39q-2.52,1.05-5.05,2Q482.53,145.45,485,144.39Z"/><path class="cls-1" d="M478.34,163.07l2-.76-2,.75Z"/><path class="cls-1" d="M485.37,103.2c4.52-19,11.15-40.33,26-54.9,8.39-8.24,21-14,33-14a31,31,0,0,1,17.52,5.06l.11.07a23.36,23.36,0,0,1,9.36,12c1.43,4.64,1.2,10.43-.71,17.71-5.09,19.51-26.09,38.5-42.79,51a200.14,200.14,0,0,1-34,20.42l2.28-1.08,6.57,13.48c-4.24,2.07-8.6,4-13,5.82a215,215,0,0,0,47.16-26.62c27.1-20.25,43.36-40.17,48.34-59.2,2.65-10.13,2.81-18.66.48-26.09l-.06-.17a38.4,38.4,0,0,0-15.39-19.77c-22.56-15.1-52.54-5.76-69.31,10.71-17.54,17.23-25,41.07-30.06,62.12-4.63,19.41-7.14,36.85-7.55,52.79q7.8-2.69,15.25-5.51A253.42,253.42,0,0,1,485.37,103.2Z"/><path class="cls-1" d="M833,504c-114.69-15.32-203.84-60.24-265-133.51-49.8-59.67-68.41-122.57-78.41-156.36-1.92-6.49-3.43-11.61-4.85-15.65a115,115,0,0,1-5.64-24.72l-14.89,1.72c-.28-2.42-.48-4.86-.65-7.31q-6.06,2-12.26,3.92L447,157.81c-47,14.48-115.87,28.49-188.27,18.57C154.67,162.13,75.45,102.85,22.75,0H6C33.75,56.24,69.33,100.89,112,133c41.58,31.23,90.24,50.84,144.62,58.29,81.58,11.17,158.57-6.88,206.89-23a132.72,132.72,0,0,0,7.09,35.25c1.29,3.67,2.83,8.89,4.62,14.93,10.31,34.83,29.49,99.66,81.27,161.71a358,358,0,0,0,24.73,26.73l10.36-10.56c6.63,6.51,13.82,13,21.38,19.19l-9.4,11.4c59.27,48.84,135.47,79.72,227.45,92,23.22,3.1,45.33,5.27,66,6.75v-15C877,509.17,855.54,507.05,833,504Z"/><path class="cls-1" d="M491.59,141.54q-2.23,1-4.48,2C488.61,142.88,490.11,142.22,491.59,141.54Z"/><path class="cls-1" d="M481.29,162l3.78-1.43c1.48-.56,2.95-1.15,4.41-1.74q-2.19.88-4.4,1.74Z"/><path class="cls-2" d="M603.45,427.07l.15-.17q-11.6-9.57-22.34-20l-.14.15C588.05,413.83,595.57,420.57,603.45,427.07Z"/><path class="cls-2" d="M613,415.5c-7.56-6.23-14.75-12.68-21.38-19.19l-10.36,10.56q10.74,10.47,22.34,20Z"/><path class="cls-2" d="M478.34,163.07h0c.15,3.67.45,7.23.86,10.72h0C478.75,170.25,478.49,166.66,478.34,163.07Z"/><path class="cls-2" d="M478.34,163.07h0q-7.21,2.64-14.73,5.15c.17,2.45.37,4.89.65,7.31l14.89-1.72c-.41-3.49-.71-7.05-.86-10.72Z"/><path class="cls-1" d="M489.62,158.74l-.14.06Z"/><path class="cls-1" d="M481.29,162l-.92.34Z"/><path class="cls-1" d="M493.77,140.52l-2.18,1Z"/><path class="cls-1" d="M463.23,152.51q-8,2.73-16.28,5.27v0c5.75-1.77,11.2-3.55,16.27-5.29Z"/><path class="cls-1" d="M478.48,147h0l1.23-.47.28-.11-.28.11Z"/><path class="cls-1" d="M487.11,143.52l-2.07.87Z"/><path class="cls-1" d="M478.2,156.33c0,2.24.05,4.48.14,6.73l2-.75.92-.34,3.79-1.43q2.21-.85,4.4-1.74l.14-.06c4.4-1.8,8.76-3.75,13-5.82l-6.57-13.48-2.28,1.08-2.18,1c-1.48.68-3,1.34-4.48,2l-2.07.87q-2.52,1.05-5.05,2l-.28.11-1.23.47h0q-7.44,2.82-15.25,5.51h0c-5.07,1.74-10.52,3.52-16.27,5.29l4.39,14.32q6.19-1.9,12.26-3.92c-.28-4-.43-8-.41-12Z"/><path class="cls-1" d="M478.2,156.33l-15-.08c0,4,.13,8,.41,12q7.5-2.51,14.73-5.15C478.25,160.81,478.19,158.57,478.2,156.33Z"/><g id="Illustration"><g id="Group_73702" data-name="Group 73702"><path id="Path_60818" data-name="Path 60818" class="cls-3" d="M521.9,460.66a10.85,10.85,0,0,1-10.81-10.8V413.43H435.74v36.43a10.83,10.83,0,0,1-10.8,10.8H376.73v9.46H570.12v-9.46Z"/><path id="Path_61342" data-name="Path 61342" class="cls-4" d="M293.82,194.86a10.8,10.8,0,0,1,10.8-10.8H642.24a10.81,10.81,0,0,1,10.8,10.8h0V378.07H293.82Z"/><path id="Path_61343" data-name="Path 61343" class="cls-5" d="M293.82,376.34v26.29a10.8,10.8,0,0,0,10.8,10.8H642.24a10.81,10.81,0,0,0,10.8-10.8h0V376.34Z"/></g><g id="Group_73708" data-name="Group 73708"><path id="Path_61345" data-name="Path 61345" class="cls-6" d="M377.54,290.77a49.9,49.9,0,0,0,0-99.79h0a50.46,50.46,0,0,0-5.63.32,63.21,63.21,0,1,0-123.59-25.12,53.25,53.25,0,0,0-65.25,65.15,29.94,29.94,0,0,0-10.26,59,30.58,30.58,0,0,0,5.14.44Z"/><g id="Group_73707" data-name="Group 73707"><g id="Group_73704" data-name="Group 73704"><rect id="Rectangle_218207" data-name="Rectangle 218207" class="cls-7" x="276.61" y="172.85" width="72.1" height="142.41" rx="10.8"/><line id="Line_131" data-name="Line 131" class="cls-8" x1="305.89" y1="186.71" x2="320.8" y2="186.71"/></g><g id="Group_73706" data-name="Group 73706"><g id="Group_73705" data-name="Group 73705"><path id="Path_60856" data-name="Path 60856" class="cls-8" d="M303,249.72l6.93,6.93L322.29,242"/></g><circle id="Ellipse_9459" data-name="Ellipse 9459" class="cls-8" cx="312.66" cy="249.3" r="20.53"/></g></g></g><g id="Group_73693" data-name="Group 73693"><path id="Path_61334" data-name="Path 61334" class="cls-9" d="M650.62,164.57h-88a10.8,10.8,0,0,0-10.8,10.8h0v155.4a10.79,10.79,0,0,0,10.8,10.8H672.85a10.8,10.8,0,0,0,10.8-10.8h0V197.59Z"/><g id="Group_73691" data-name="Group 73691"><path id="Path_61335" data-name="Path 61335" class="cls-10" d="M683.64,197.59h-33v-33"/></g><g id="Group_73692" data-name="Group 73692"><line id="Line_222" data-name="Line 222" class="cls-11" x1="590.37" y1="217.07" x2="672.23" y2="217.07"/><line id="Line_223" data-name="Line 223" class="cls-11" x1="666.35" y1="236.25" x2="697.03" y2="236.25"/><line id="Line_224" data-name="Line 224" class="cls-11" x1="590.37" y1="236.25" x2="653.82" y2="236.25"/><line id="Line_225" data-name="Line 225" class="cls-11" x1="590.37" y1="255.42" x2="697.03" y2="255.42"/></g><path id="Path_61336" data-name="Path 61336" class="cls-7" d="M499.65,271.51a6.3,6.3,0,0,0-6.3,6.3h0v43.08a6.3,6.3,0,0,0,6.3,6.3h8.88v22.25a1.27,1.27,0,0,0,2.16.9l23.15-23.15H568a6.3,6.3,0,0,0,6.3-6.3h0V277.82a6.3,6.3,0,0,0-6.3-6.3H499.65Z"/><g id="Group_73715" data-name="Group 73715"><path id="Path_61350" data-name="Path 61350" class="cls-11" d="M697.05,279.35a30.51,30.51,0,0,1-.07,20.71c-2.43,6.32-7.23,11.07-12.79,12.67a14.35,14.35,0,0,1-16.53-7.05c-2.69-4.94-2.82-11.17-2.57-17,.14-3.24.43-6.69,2.11-9.1s5.23-3,6.88-.38a7.81,7.81,0,0,1,1,3.24,24.19,24.19,0,0,1-1.89,11.33c-3.2,8.2-9.13,15-16.48,16.58s-15.91-3.22-18.88-11.91c-.8-2.35-1.1-5.29.26-7.07,1.51-2,4.54-1.29,6,1a9.88,9.88,0,0,1,.66,8c-1.61,5.06-5.89,7.89-10.07,9.62,0,0-16.89,10-42.12,0"/></g></g></g></svg>