<svg id="Layer_1" data-name="Layer 1" xmlns="http://www.w3.org/2000/svg" viewBox="0 0 115 115"><defs><style>.cls-1{fill:#c44139;}.cls-2{fill:none;stroke:#ff484a;stroke-linejoin:round;stroke-width:2px;}.cls-3{fill:#fcb7b4;}.cls-4,.cls-5{isolation:isolate;}.cls-5{font-size:12.31px;fill:#b30b00;font-family:Arial-BoldMT, Arial;font-weight:700;letter-spacing:0.05em;}.cls-6{fill:#fa0f00;}.cls-7{fill:#ff484a;}</style></defs><g id="Icon:_View_store_and_share_PDFs" data-name="Icon: View store and share PDFs"><path id="Path_61315" data-name="Path 61315" class="cls-1" d="M79.76,66.66H43.57V65.39a7.2,7.2,0,0,0-7.2-7.2H25.24a7.2,7.2,0,0,0-7.2,7.2h0v46.25H43.57V108H79.76a1.94,1.94,0,0,0,1.94-1.94V68.6A1.94,1.94,0,0,0,79.76,66.66Z"/><path id="Path_61316" data-name="Path 61316" class="cls-2" d="M65.32,89.82C58.08,87.71,51.76,83,46.82,77.34S38.21,65,35.07,58.1c-3.66-8-6.71-16.76-5.2-25.41.77-4.43,3.29-9.11,7.65-10.17,3.7-.9,7.7,1.26,9.65,4.53s2.08,7.37,1.13,11.05a19.17,19.17,0,0,1-8.36,11.55,16.36,16.36,0,0,1-14,1.5,21.1,21.1,0,0,1-8.21-6.08A35.15,35.15,0,0,1,9.75,15.93H2.5L10.2,4l8.43,11.92h-5.8"/><g id="Group_73749" data-name="Group 73749"><path id="Path_61317" data-name="Path 61317" class="cls-3" d="M91.55,20.71H62.27a7.2,7.2,0,0,0-7.2,7.2h0V81.63a10.79,10.79,0,0,0,10.8,10.8h40.42a7.2,7.2,0,0,0,7.2-7.2h0V40a5.79,5.79,0,0,0-2.07-4.43L95.23,22.05A5.74,5.74,0,0,0,91.55,20.71Z"/><g id="PDF" class="cls-4"><text class="cls-5" transform="translate(71.53 78.26)">PDF</text></g><g id="product-icon-reader"><g id="Outlined_Mnemonics_Logos" data-name="Outlined Mnemonics Logos"><g id="DC_Trefoil" data-name="DC Trefoil"><path id="_256" data-name=" 256" class="cls-6" d="M99.42,53.84c-1-1.1-3-1.61-5.77-1.61a29.17,29.17,0,0,0-4.67.43,23.83,23.83,0,0,1-2.72-3.14,28.12,28.12,0,0,1-1.69-2.64,27.64,27.64,0,0,0,1.52-7.47c0-2.29-.93-4.75-3.48-4.75a2.49,2.49,0,0,0-2.12,1.27c-1.1,1.87-.68,5.69,1.1,9.68-.6,1.79-1.27,3.57-2,5.52A31,31,0,0,1,77.17,56c-2.63,1-8.15,3.57-8.66,6.37a2.16,2.16,0,0,0,.77,2.21,3.17,3.17,0,0,0,2.29.76c3.31,0,6.62-4.58,8.91-8.57,1.28-.43,2.55-.85,3.9-1.19s2.8-.68,4.08-.94c3.56,3.06,6.7,3.57,8.23,3.57,2.12,0,3-.94,3.23-1.7A2.49,2.49,0,0,0,99.42,53.84Zm-2.29,1.62c-.08.59-.76,1-1.61,1a2.5,2.5,0,0,1-.77-.09A12.05,12.05,0,0,1,90.08,54a22.78,22.78,0,0,1,3.4-.25,19.44,19.44,0,0,1,2.29.17c.76.17,1.61.51,1.36,1.53ZM81.93,36.69a1.26,1.26,0,0,1,.76-.51c.85,0,1,.94,1,1.78a21.53,21.53,0,0,1-1,5.69c-1.43-3.64-1.27-6.11-.76-7ZM86.68,53c-.94.17-1.87.43-2.8.68-.68.17-1.36.43-2.12.59.34-.76.68-1.52,1-2.2.42-.94.76-1.87,1.1-2.8.34.51.59.93.93,1.36.6.85,1.28,1.61,1.87,2.38ZM76.41,57.91c-2.12,3.4-4.25,5.6-5.43,5.6a.85.85,0,0,1-.51-.17.68.68,0,0,1-.26-.76c.17-1.27,2.63-3.06,6.2-4.67Z"/></g></g></g></g><path id="Path_60850" data-name="Path 60850" class="cls-7" d="M74.27,113.79H21.32c-2.9,0-4.1-1.47-2.7-3.29l18-23.16c1.41-1.81,4.9-3.29,7.8-3.29h53c2.9,0,4.1,1.48,2.7,3.29l-18,23.16C80.67,112.32,77.17,113.79,74.27,113.79Z"/></g></svg>