<svg id="Layer_1" data-name="Layer 1" xmlns="http://www.w3.org/2000/svg" viewBox="0 0 115 115"><defs><style>.cls-1{fill:#fcb7b4;}.cls-2{fill:#c44139;}.cls-3,.cls-4,.cls-6,.cls-7{fill:none;}.cls-3,.cls-4{stroke:#c44139;}.cls-3,.cls-4,.cls-7{stroke-width:2px;}.cls-4,.cls-6,.cls-7{stroke-miterlimit:10;}.cls-5{fill:#ff484a;}.cls-6{stroke:#fff;stroke-width:3px;}.cls-7{stroke:#fcdbdb;}</style></defs><g id="Icon:_Work_from_anywhere" data-name="Icon: Work from anywhere"><g id="Group_73745" data-name="Group 73745"><path id="Path_61356" data-name="Path 61356" class="cls-1" d="M10.8,14.15h93.38A10.8,10.8,0,0,1,115,25h0V82.43a7.2,7.2,0,0,1-7.2,7.2h-97A10.8,10.8,0,0,1,0,78.83H0V25A10.8,10.8,0,0,1,10.8,14.15Z"/><path id="Path_61354" data-name="Path 61354" class="cls-2" d="M115,29V21.35a7.2,7.2,0,0,0-7.2-7.2H7.2A7.2,7.2,0,0,0,0,21.35H0V29Z"/><path id="Path_61405" data-name="Path 61405" class="cls-3" d="M12.38,46.75H39.5"/><line id="Line_232" data-name="Line 232" class="cls-4" x1="12.38" y1="57.31" x2="35.5" y2="57.31"/><line id="Line_233" data-name="Line 233" class="cls-4" x1="12.38" y1="67.88" x2="47.5" y2="67.88"/></g><g id="Group_73721" data-name="Group 73721"><rect id="Rectangle_218214" data-name="Rectangle 218214" class="cls-5" x="52.92" y="1.92" width="50.6" height="99.94" rx="7.2"/><line id="Line_131" data-name="Line 131" class="cls-6" x1="73.47" y1="11.65" x2="83.93" y2="11.65"/></g><g id="Group_73723" data-name="Group 73723"><g id="Group_73722" data-name="Group 73722"><path id="Path_60856" data-name="Path 60856" class="cls-7" d="M71.14,54.73l5.44,5.44,9.69-11.55"/></g><circle id="Ellipse_9460" data-name="Ellipse 9460" class="cls-7" cx="78.7" cy="54.4" r="16.13"/></g></g></svg>